<svg width="745" height="100" viewBox="0 0 745 100" fill="none" xmlns="http://www.w3.org/2000/svg">
<rect width="100" height="100" rx="20" fill="#E11D48"/>
<circle cx="28.9654" cy="32.4138" r="6.2069" fill="black"/>
<circle cx="71.0344" cy="32.4138" r="6.2069" fill="black"/>
<path d="M73.3437 53.1508C73.3437 65.9438 59.6104 68.637 50.6837 69.3103C44.1603 69.3103 38.1713 68.6207 31.6061 63.7703C29.2349 62.0184 27.0769 59.2467 26.4471 56.5517C25.739 53.5214 26.7516 50.5879 27.4816 49.3103C28.8609 46.8966 30.9299 45.5172 35.7575 45.5172C38.8609 45.5172 44.8734 46.717 48.5161 46.8966C52.998 47.1175 57.4817 45.8621 61.6196 45.8621C64.0418 45.8621 67.6682 45.3832 70.2402 46.8966C72.0622 47.9685 73.3437 50.3837 73.3437 53.1508Z" fill="black"/>
<mask id="mask0_1_4" style="mask-type:alpha" maskUnits="userSpaceOnUse" x="26" y="45" width="48" height="25">
<path d="M73.3437 53.1508C73.3437 65.9438 59.6104 68.637 50.6837 69.3103C44.1603 69.3103 38.1713 68.6207 31.6061 63.7703C29.2349 62.0184 27.0769 59.2467 26.4471 56.5517C25.739 53.5214 26.7516 50.5879 27.4816 49.3103C28.8609 46.8966 30.9299 45.5172 35.7575 45.5172C38.8609 45.5172 44.8734 46.717 48.5161 46.8966C52.998 47.1175 57.4817 45.8621 61.6196 45.8621C64.0418 45.8621 67.6682 45.3832 70.2402 46.8966C72.0622 47.9685 73.3437 50.3837 73.3437 53.1508Z" fill="black"/>
</mask>
<g mask="url(#mask0_1_4)">
<circle cx="55.1725" cy="71.0345" r="10.3448" fill="#F05984"/>
<circle cx="44.1379" cy="71.0345" r="10.3448" fill="#F05984"/>
<ellipse cx="55.1724" cy="46.5517" rx="4.82759" ry="5.17241" fill="#F7F7F7"/>
<ellipse cx="44.8276" cy="46.5517" rx="4.82759" ry="5.17241" fill="#F7F7F7"/>
</g>
<path d="M375.993 62.8333H373.721V59.0667C373.721 57.8333 373.888 56.9 373.888 56.9H373.787C372.284 60.2333 368.274 63.5 363.496 63.5C356.246 63.5 351 57.3 351 49.3667C351 41.2667 356.246 35.2333 363.496 35.2333C368.274 35.2333 372.25 38.4667 373.787 41.8333H373.888C373.888 41.8333 373.721 40.9 373.721 39.6667V24H375.993V62.8333ZM353.372 49.3333C353.372 56.0333 357.315 61.2667 363.496 61.2667C368.308 61.2667 373.787 57.7 373.787 49.3333C373.787 40.9667 368.308 37.4 363.496 37.4C357.315 37.4 353.372 42.4667 353.372 49.3333Z" fill="white"/>
<path d="M412.412 49.3333C412.412 57.4333 406.665 63.4667 398.947 63.4667C391.229 63.4667 385.482 57.4333 385.482 49.3333C385.482 41.2333 391.229 35.2 398.947 35.2C406.665 35.2 412.412 41.2333 412.412 49.3333ZM410.04 49.3333C410.04 42.4667 405.429 37.4 398.947 37.4C392.465 37.4 387.854 42.4667 387.854 49.3333C387.854 56.2 392.465 61.2667 398.947 61.2667C405.429 61.2667 410.04 56.1667 410.04 49.3333Z" fill="white"/>
<path d="M434.932 61.2667C439.042 61.2667 441.715 60.0333 443.854 58.7333V61.2333C441.682 62.3667 439.076 63.5 434.932 63.5C427.08 63.5 421.333 57.4667 421.333 49.3667C421.333 41.2667 427.08 35.2333 434.932 35.2333C439.109 35.2333 441.548 36.3667 443.687 37.5V40C441.515 38.7 439.042 37.4667 434.932 37.4667C428.317 37.4667 423.739 42.5333 423.739 49.4C423.739 56.1667 428.317 61.2667 434.932 61.2667Z" fill="white"/>
<path d="M451.706 35.8333H453.911V52.1333C453.911 56.8333 454.512 61.2667 460.56 61.2667C467.343 61.2667 471.653 55.3333 471.653 49V35.8333H473.925V62.8333H471.653V58.0667C471.653 56.8333 471.853 55.8667 471.853 55.8667H471.753C470.818 58.4 467.109 63.4667 460.56 63.4667C453.911 63.4667 451.672 59.8 451.672 52.9333V35.8333H451.706Z" fill="white"/>
<path d="M488.159 35.8333V40.6C488.159 41.8333 487.958 42.8 487.958 42.8H488.058C489.395 38.7333 494.24 35.2 498.45 35.2C503.863 35.2 506.402 37.7333 507.003 42.5333H507.104C508.607 38.7667 512.717 35.2 517.395 35.2C524.378 35.2 526.449 39.3 526.449 45.7333V62.8667H524.177V46.5667C524.177 41.5 523.142 37.4333 517.428 37.4333C511.08 37.4333 507.371 44.0333 507.371 49.7V62.8667H505.099V46.5667C505.099 41.9333 504.464 37.4333 498.483 37.4333C492.202 37.4333 488.192 43.9 488.192 49.7V62.8667H485.92V35.8667H488.159V35.8333Z" fill="white"/>
<path d="M560.029 47.8V49.1H537.743V49.6C537.743 56.5 542.354 61.2667 548.903 61.2667C552.478 61.2667 556.086 60.2333 559.094 58.3V60.8C556.588 62.3 552.979 63.5 548.97 63.5C541.118 63.5 535.371 57.7667 535.371 49.3667C535.371 41.2 540.951 35.2333 548.201 35.2333C555.752 35.1667 560.029 41.1667 560.029 47.8ZM548.101 37.4C542.153 37.4 538.511 42.2667 537.877 47.2333H557.523C557.523 42.2333 554.282 37.4 548.101 37.4Z" fill="white"/>
<path d="M571.49 35.8333V40.6C571.49 41.8333 571.289 42.8 571.289 42.8H571.389C572.325 40.2667 576.101 35.2 582.85 35.2C589.9 35.2 591.771 39.3667 591.771 45.7333V62.8667H589.499V46.5667C589.499 41.8667 588.898 37.4333 582.85 37.4333C576.401 37.4333 571.49 42.7667 571.49 49.7V62.8667H569.218V35.8667H571.49V35.8333Z" fill="white"/>
<path d="M603.332 35.8333V27.7333H605.604V35.8333H614.659V37.8333H605.604V55.1C605.604 59.7333 607.508 61.3667 610.215 61.3667C611.852 61.3667 613.89 60.9333 615.628 60.0667V62.1667C614.391 62.8667 612.32 63.4667 610.048 63.4667C606.573 63.4667 603.332 61.5667 603.332 55.3V37.8H598.287V35.8H603.332V35.8333Z" fill="white"/>
<path d="M622.644 37.2667C624.148 36.4 627.623 35.1667 631.733 35.1667C638.783 35.1667 642.124 38.6333 642.124 45.3667V62.8H639.852V59C639.852 57.5333 640.052 56.5667 640.052 56.5667H639.952C640.019 56.5667 636.544 63.4667 629.293 63.4667C624.315 63.4667 621.007 60.4 621.007 56.3C621.007 49.4 628.759 46.0333 639.852 47.7V45.4333C639.852 39.4333 636.544 37.4 631.632 37.4C627.589 37.4 624.014 38.8 622.644 39.6667V37.2667ZM639.852 49.7667C629.828 48.1333 623.413 50.8333 623.413 56.1333C623.413 59.1 625.752 61.2667 629.427 61.2667C635.475 61.2667 639.852 55.2667 639.852 49.7667Z" fill="white"/>
<path d="M655.021 35.8333V27.7333H657.293V35.8333H666.348V37.8333H657.293V55.1C657.293 59.7333 659.198 61.3667 661.904 61.3667C663.541 61.3667 665.579 60.9333 667.317 60.0667V62.1667C666.081 62.8667 664.009 63.4667 661.737 63.4667C658.262 63.4667 655.021 61.5667 655.021 55.3V37.8H649.976V35.8H655.021V35.8333Z" fill="white"/>
<path d="M674.935 26C676.004 26 676.84 26.8 676.84 27.9C676.84 29 676.038 29.8 674.935 29.8C673.832 29.8 673.031 29 673.031 27.9C673.031 26.8 673.866 26 674.935 26ZM676.071 35.8333V62.8333H673.799V35.8333H676.071Z" fill="white"/>
<path d="M712.491 49.3333C712.491 57.4333 706.744 63.4667 699.025 63.4667C691.274 63.4667 685.56 57.4333 685.56 49.3333C685.56 41.2333 691.307 35.2 699.025 35.2C706.777 35.1667 712.491 41.2333 712.491 49.3333ZM710.118 49.3333C710.118 42.4667 705.508 37.4 699.025 37.4C692.543 37.4 687.933 42.4667 687.933 49.3333C687.933 56.2 692.543 61.2667 699.025 61.2667C705.508 61.2667 710.118 56.1667 710.118 49.3333Z" fill="white"/>
<path d="M724.252 35.8333V40.6C724.252 41.8333 724.051 42.8 724.051 42.8H724.152C725.087 40.2667 728.863 35.2 735.612 35.2C742.662 35.2 744.533 39.3667 744.533 45.7333V62.8667H742.261V46.5667C742.261 41.8667 741.66 37.4333 735.612 37.4333C729.164 37.4333 724.252 42.7667 724.252 49.7V62.8667H721.98V35.8667H724.252V35.8333Z" fill="white"/>
<path d="M123.65 49.4C123.65 45.9333 124.4 42.85 125.9 40.15C127.4 37.4167 129.483 35.3 132.15 33.8C134.85 32.2667 137.9 31.5 141.3 31.5C145.467 31.5 149.033 32.6 152 34.8C154.967 37 156.95 40 157.95 43.8H148.55C147.85 42.3333 146.85 41.2167 145.55 40.45C144.283 39.6833 142.833 39.3 141.2 39.3C138.567 39.3 136.433 40.2167 134.8 42.05C133.167 43.8833 132.35 46.3333 132.35 49.4C132.35 52.4667 133.167 54.9167 134.8 56.75C136.433 58.5833 138.567 59.5 141.2 59.5C142.833 59.5 144.283 59.1167 145.55 58.35C146.85 57.5833 147.85 56.4667 148.55 55H157.95C156.95 58.8 154.967 61.8 152 64C149.033 66.1667 145.467 67.25 141.3 67.25C137.9 67.25 134.85 66.5 132.15 65C129.483 63.4667 127.4 61.35 125.9 58.65C124.4 55.95 123.65 52.8667 123.65 49.4ZM185.036 60.8H171.936L169.836 67H160.886L173.586 31.9H183.486L196.186 67H187.136L185.036 60.8ZM182.836 54.2L178.486 41.35L174.186 54.2H182.836ZM231.451 67H222.901L208.601 45.35V67H200.051V31.9H208.601L222.901 53.65V31.9H231.451V67ZM262.899 31.9V38.75H253.599V67H245.049V38.75H235.749V31.9H262.899ZM289.04 60.8H275.94L273.84 67H264.89L277.59 31.9H287.49L300.19 67H291.14L289.04 60.8ZM286.84 54.2L282.49 41.35L278.19 54.2H286.84ZM312.605 38.75V45.85H324.055V52.45H312.605V60.15H325.555V67H304.055V31.9H325.555V38.75H312.605ZM314.555 25.8L306.805 29.9V24L314.555 20.05L322.305 24V29.9L314.555 25.8Z" fill="white"/>
</svg>
