<svg width="295" height="100" viewBox="0 0 295 100" fill="none" xmlns="http://www.w3.org/2000/svg">
<rect width="100" height="100" rx="20" fill="#E11D48"/>
<circle cx="28.9655" cy="32.4138" r="6.2069" fill="black"/>
<circle cx="71.0345" cy="32.4138" r="6.2069" fill="black"/>
<path d="M73.3437 53.1508C73.3437 65.9438 59.6104 68.637 50.6837 69.3103C44.1603 69.3103 38.1713 68.6207 31.6061 63.7703C29.2349 62.0184 27.0769 59.2467 26.4471 56.5517C25.739 53.5214 26.7516 50.5879 27.4816 49.3103C28.8609 46.8966 30.9299 45.5172 35.7575 45.5172C38.8609 45.5172 44.8734 46.717 48.5161 46.8966C52.998 47.1175 57.4817 45.8621 61.6196 45.8621C64.0418 45.8621 67.6682 45.3832 70.2402 46.8966C72.0622 47.9685 73.3437 50.3837 73.3437 53.1508Z" fill="black"/>
<mask id="mask0_1_4" style="mask-type:alpha" maskUnits="userSpaceOnUse" x="26" y="45" width="48" height="25">
<path d="M73.3437 53.1508C73.3437 65.9438 59.6104 68.637 50.6837 69.3103C44.1603 69.3103 38.1713 68.6207 31.6061 63.7703C29.2349 62.0184 27.0769 59.2467 26.4471 56.5517C25.739 53.5214 26.7516 50.5879 27.4816 49.3103C28.8609 46.8966 30.9299 45.5172 35.7575 45.5172C38.8609 45.5172 44.8734 46.717 48.5161 46.8966C52.998 47.1175 57.4817 45.8621 61.6196 45.8621C64.0418 45.8621 67.6682 45.3832 70.2402 46.8966C72.0622 47.9685 73.3437 50.3837 73.3437 53.1508Z" fill="black"/>
</mask>
<g mask="url(#mask0_1_4)">
<circle cx="55.1724" cy="71.0345" r="10.3448" fill="#F05984"/>
<circle cx="44.1379" cy="71.0345" r="10.3448" fill="#F05984"/>
<ellipse cx="55.1724" cy="46.5517" rx="4.82759" ry="5.17241" fill="#F7F7F7"/>
<ellipse cx="44.8276" cy="46.5517" rx="4.82759" ry="5.17241" fill="#F7F7F7"/>
</g>
<path d="M112.584 50.104C112.584 46.776 113.304 43.816 114.744 41.224C116.184 38.6 118.184 36.568 120.744 35.128C123.336 33.656 126.264 32.92 129.528 32.92C133.528 32.92 136.952 33.976 139.8 36.088C142.648 38.2 144.552 41.08 145.512 44.728H136.488C135.816 43.32 134.856 42.248 133.608 41.512C132.392 40.776 131 40.408 129.432 40.408C126.904 40.408 124.856 41.288 123.288 43.048C121.72 44.808 120.936 47.16 120.936 50.104C120.936 53.048 121.72 55.4 123.288 57.16C124.856 58.92 126.904 59.8 129.432 59.8C131 59.8 132.392 59.432 133.608 58.696C134.856 57.96 135.816 56.888 136.488 55.48H145.512C144.552 59.128 142.648 62.008 139.8 64.12C136.952 66.2 133.528 67.24 129.528 67.24C126.264 67.24 123.336 66.52 120.744 65.08C118.184 63.608 116.184 61.576 114.744 58.984C113.304 56.392 112.584 53.432 112.584 50.104ZM148.907 53.56C148.907 50.808 149.419 48.392 150.443 46.312C151.499 44.232 152.923 42.632 154.715 41.512C156.507 40.392 158.507 39.832 160.715 39.832C162.603 39.832 164.251 40.216 165.659 40.984C167.099 41.752 168.203 42.76 168.971 44.008V40.216H177.179V67H168.971V63.208C168.171 64.456 167.051 65.464 165.611 66.232C164.203 67 162.555 67.384 160.667 67.384C158.491 67.384 156.507 66.824 154.715 65.704C152.923 64.552 151.499 62.936 150.443 60.856C149.419 58.744 148.907 56.312 148.907 53.56ZM168.971 53.608C168.971 51.56 168.395 49.944 167.243 48.76C166.123 47.576 164.747 46.984 163.115 46.984C161.483 46.984 160.091 47.576 158.939 48.76C157.819 49.912 157.259 51.512 157.259 53.56C157.259 55.608 157.819 57.24 158.939 58.456C160.091 59.64 161.483 60.232 163.115 60.232C164.747 60.232 166.123 59.64 167.243 58.456C168.395 57.272 168.971 55.656 168.971 53.608ZM199.437 39.928C202.573 39.928 205.069 40.952 206.925 43C208.813 45.016 209.757 47.8 209.757 51.352V67H201.597V52.456C201.597 50.664 201.133 49.272 200.205 48.28C199.277 47.288 198.029 46.792 196.461 46.792C194.893 46.792 193.645 47.288 192.717 48.28C191.789 49.272 191.325 50.664 191.325 52.456V67H183.117V40.216H191.325V43.768C192.157 42.584 193.277 41.656 194.685 40.984C196.093 40.28 197.677 39.928 199.437 39.928ZM230.388 60.04V67H226.212C223.236 67 220.916 66.28 219.252 64.84C217.588 63.368 216.756 60.984 216.756 57.688V47.032H213.492V40.216H216.756V33.688H224.964V40.216H230.34V47.032H224.964V57.784C224.964 58.584 225.156 59.16 225.54 59.512C225.924 59.864 226.564 60.04 227.46 60.04H230.388ZM233.328 53.56C233.328 50.808 233.84 48.392 234.864 46.312C235.92 44.232 237.344 42.632 239.136 41.512C240.928 40.392 242.928 39.832 245.136 39.832C247.024 39.832 248.672 40.216 250.08 40.984C251.52 41.752 252.624 42.76 253.392 44.008V40.216H261.6V67H253.392V63.208C252.592 64.456 251.472 65.464 250.032 66.232C248.624 67 246.976 67.384 245.088 67.384C242.912 67.384 240.928 66.824 239.136 65.704C237.344 64.552 235.92 62.936 234.864 60.856C233.84 58.744 233.328 56.312 233.328 53.56ZM253.392 53.608C253.392 51.56 252.816 49.944 251.664 48.76C250.544 47.576 249.168 46.984 247.536 46.984C245.904 46.984 244.512 47.576 243.36 48.76C242.24 49.912 241.68 51.512 241.68 53.56C241.68 55.608 242.24 57.24 243.36 58.456C244.512 59.64 245.904 60.232 247.536 60.232C249.168 60.232 250.544 59.64 251.664 58.456C252.816 57.272 253.392 55.656 253.392 53.608ZM292.786 53.176C292.786 53.944 292.739 54.744 292.643 55.576H274.067C274.195 57.24 274.723 58.52 275.651 59.416C276.611 60.28 277.779 60.712 279.155 60.712C281.203 60.712 282.627 59.848 283.427 58.12H292.163C291.715 59.88 290.899 61.464 289.715 62.872C288.563 64.28 287.107 65.384 285.347 66.184C283.587 66.984 281.619 67.384 279.443 67.384C276.819 67.384 274.483 66.824 272.435 65.704C270.387 64.584 268.787 62.984 267.635 60.904C266.483 58.824 265.907 56.392 265.907 53.608C265.907 50.824 266.467 48.392 267.587 46.312C268.739 44.232 270.339 42.632 272.387 41.512C274.435 40.392 276.787 39.832 279.443 39.832C282.035 39.832 284.339 40.376 286.355 41.464C288.371 42.552 289.939 44.104 291.059 46.12C292.211 48.136 292.786 50.488 292.786 53.176ZM284.387 51.016C284.387 49.608 283.907 48.488 282.947 47.656C281.987 46.824 280.787 46.408 279.347 46.408C277.971 46.408 276.803 46.808 275.843 47.608C274.915 48.408 274.339 49.544 274.115 51.016H284.387ZM279.347 34.264L271.907 38.2V32.536L279.347 28.744L286.787 32.536V38.2L279.347 34.264Z" fill="#1D1B1B"/>
</svg>
