<svg width="145" height="145" viewBox="0 0 145 145" fill="none" xmlns="http://www.w3.org/2000/svg">
<rect width="145" height="145" rx="30" fill="#e11d48"/>
<circle cx="42" cy="47" r="9" fill="black"/>
<circle cx="103" cy="47" r="9" fill="black"/>
<path d="M106.348 77.0687C106.348 95.6185 86.4351 99.5237 73.4914 100.5C64.0324 100.5 55.3483 99.5 45.8289 92.4669C42.3906 89.9267 39.2616 85.9077 38.3483 82C37.3215 77.606 38.7897 73.3525 39.8483 71.5C41.8483 68 44.8483 66 51.8483 66C56.3483 66 65.0663 67.7396 70.3483 68C76.8471 68.3204 83.3484 66.5 89.3484 66.5C92.8606 66.5 98.1189 65.8057 101.848 68C104.49 69.5544 106.348 73.0564 106.348 77.0687Z" fill="black"/>
<mask id="mask0_108_3" style="mask-type:alpha" maskUnits="userSpaceOnUse" x="38" y="66" width="69" height="35">
<path d="M106.348 77.0687C106.348 95.6185 86.4351 99.5237 73.4914 100.5C64.0324 100.5 55.3483 99.5 45.8289 92.4669C42.3906 89.9267 39.2616 85.9077 38.3483 82C37.3215 77.606 38.7897 73.3525 39.8483 71.5C41.8483 68 44.8483 66 51.8483 66C56.3483 66 65.0663 67.7396 70.3483 68C76.8471 68.3204 83.3484 66.5 89.3484 66.5C92.8606 66.5 98.1189 65.8057 101.848 68C104.49 69.5544 106.348 73.0564 106.348 77.0687Z" fill="black"/>
</mask>
<g mask="url(#mask0_108_3)">
<circle cx="80" cy="103" r="15" fill="#F05984"/>
<circle cx="64" cy="103" r="15" fill="#F05984"/>
<ellipse cx="80" cy="67.5" rx="7" ry="7.5" fill="#F7F7F7"/>
<ellipse cx="65" cy="67.5" rx="7" ry="7.5" fill="#F7F7F7"/>
</g>
</svg>
